<?xml version="1.0" encoding="UTF-8"?>
<svg version="1.1" xmlns="http://www.w3.org/2000/svg" width="243" height="213">
<path d="M0 0 C80.19 0 160.38 0 243 0 C243 70.29 243 140.58 243 213 C162.81 213 82.62 213 0 213 C0 142.71 0 72.42 0 0 Z " fill="#FCFCFC" transform="translate(0,0)"/>
<path d="M0 0 C1.06927734 -0.01224609 2.13855469 -0.02449219 3.24023438 -0.03710938 C17.91530443 -0.06371071 31.83180787 2.48046475 43.9375 11.1875 C44.9375 12.1875 44.9375 12.1875 45 15.0625 C44.07655063 20.89481178 40.06111885 26.14089271 35.9375 30.1875 C30.94783718 31.89412918 27.89537279 30.65711545 23.125 28.75 C8.77971912 23.70925401 -8.78987256 23.97418111 -22.91015625 29.64453125 C-42.03637194 39.00618577 -53.95442469 53.14918467 -61.1015625 73.0859375 C-64.73749445 85.48888294 -64.23001571 99.00553101 -60.0625 111.1875 C-59.73378906 112.15945312 -59.40507813 113.13140625 -59.06640625 114.1328125 C-52.26318358 132.16488367 -40.02025737 143.66936725 -23.0625 152.1875 C-7.73076342 158.65000524 11.60348684 158.34015373 26.9375 152.1875 C34.02734255 149.21985782 39.89281521 145.88928138 45.4140625 140.5078125 C46.9375 139.1875 46.9375 139.1875 48.9375 139.1875 C49.31455078 138.3521875 49.31455078 138.3521875 49.69921875 137.5 C51.13498292 134.8186991 52.8820627 132.58760299 54.75 130.1875 C61.51860856 120.91744915 64.37840106 111.6132585 66.06640625 100.4375 C67.06480271 96.71254103 67.69918956 95.28689089 70.9375 93.1875 C73.79863749 92.94907188 76.12224497 92.93759512 78.9375 93.1875 C79.6490625 93.21972656 80.360625 93.25195312 81.09375 93.28515625 C84.52129204 93.5345483 86.64046861 93.96460914 89.41015625 96.04296875 C92.90697474 100.95282386 90.8058951 107.68790177 89.875 113.25 C85.66229264 134.4840702 71.6753447 153.65500979 54.23046875 166.08984375 C43.74566767 172.76877397 33.05393841 177.35799646 20.9375 180.1875 C20.25800293 180.36265137 19.57850586 180.53780273 18.87841797 180.71826172 C-0.20524007 185.41069003 -20.63200214 181.80662486 -38.0625 173.1875 C-38.3925 172.8575 -38.7225 172.5275 -39.0625 172.1875 C-48.12528685 172.41936218 -56.41062518 175.79347354 -64.875 178.75 C-67.12580944 179.53223036 -69.37745349 180.31162648 -71.63175964 181.08372498 C-73.02623385 181.56165496 -74.41870306 182.04548771 -75.80879211 182.536026 C-79.13294165 183.67859552 -81.49236937 184.1875 -85.0625 184.1875 C-84.00161031 177.60998392 -82.25956471 171.48069595 -80.125 165.1875 C-79.85913086 164.40358887 -79.59326172 163.61967773 -79.31933594 162.81201172 C-78.80072355 161.28782846 -78.28138279 159.76389279 -77.76123047 158.24023438 C-74.36565954 149.39242589 -74.36565954 149.39242589 -74.0625 140.1875 C-75.40008009 137.80651551 -76.86955108 135.52648136 -78.3359375 133.22265625 C-80.35923882 129.66585733 -81.86750542 126.07104703 -83.3125 122.25 C-83.55822754 121.61852051 -83.80395508 120.98704102 -84.05712891 120.33642578 C-92.09511178 98.4826405 -89.83422787 73.23703238 -80.3125 52.375 C-76.9525323 45.40306702 -72.9840675 39.17897348 -68.0625 33.1875 C-67.47210938 32.4346875 -66.88171875 31.681875 -66.2734375 30.90625 C-49.92190043 11.14524349 -25.41916451 0.01494366 0 0 Z " fill="#474AF3" transform="translate(111.0625,16.8125)"/>
<path d="M0 0 C3.51826289 1.95459049 7.13824431 4.13824431 10 7 C10.52377614 11.74993064 10.62931407 14.70944206 7.7265625 18.60546875 C6.71160267 19.81558108 5.67661396 21.00910134 4.625 22.1875 C3.51820995 23.49367321 2.41276364 24.8009861 1.30859375 26.109375 C0.75155762 26.75841797 0.19452148 27.40746094 -0.37939453 28.07617188 C-2.79937644 30.94894341 -5.05197733 33.93896493 -7.3125 36.9375 C-8.87419379 38.95895644 -10.43662302 40.97984505 -12 43 C-12.64839844 43.86496094 -13.29679688 44.72992188 -13.96484375 45.62109375 C-15.55571679 47.62970151 -16.9923257 49.40956853 -19 51 C-22.3125 51.125 -22.3125 51.125 -25 50 C-27 48 -27 48 -27.44140625 45.12890625 C-27.26258664 39.31200941 -24.32996779 34.12622271 -21.9375 28.9375 C-21.43669922 27.82947021 -20.93589844 26.72144043 -20.41992188 25.57983398 C-18.96414231 22.37810258 -17.48754573 19.18707841 -16 16 C-15.61730957 15.17661133 -15.23461914 14.35322266 -14.84033203 13.50488281 C-7.95790154 -1.17894838 -7.95790154 -1.17894838 0 0 Z " fill="#91C443" transform="translate(195,5)"/>
<path d="M0 0 C3.94563005 3.55026017 7.65760122 7.43200912 8.375 12.8125 C7.86575454 17.14108639 6.27349138 18.18289444 3 21 C0.56823797 22.32130322 -1.74778994 23.46834719 -4.27734375 24.55078125 C-4.96631241 24.85445114 -5.65528107 25.15812103 -6.36512756 25.47099304 C-7.81406072 26.10598747 -9.26557408 26.73512374 -10.71948242 27.35864258 C-12.93476322 28.31132305 -15.13831955 29.28795487 -17.34179688 30.26757812 C-18.75717637 30.88427454 -20.17317269 31.49955761 -21.58984375 32.11328125 C-22.2431517 32.40382889 -22.89645966 32.69437653 -23.56956482 32.99372864 C-27.53208429 34.6709502 -30.70377107 35.3995481 -35 35 C-36.875 33.9375 -36.875 33.9375 -38 32 C-38.51953125 28.7734375 -38.51953125 28.7734375 -38 25 C-35.95849205 22.43387378 -33.44571578 20.61792882 -30.8125 18.6875 C-30.09231689 18.13280029 -29.37213379 17.57810059 -28.63012695 17.0065918 C-27.15149798 15.8710269 -25.66566827 14.74477774 -24.17285156 13.62792969 C-22.14652895 12.10978146 -20.14360591 10.56657045 -18.1484375 9.0078125 C-5.29266215 -1.01781964 -5.29266215 -1.01781964 0 0 Z " fill="#FDAE0F" transform="translate(221,39)"/>
<path d="M0 0 C2.875 1.6875 2.875 1.6875 5 5 C5.69419251 9.42267808 5.95252257 13.61279313 5 18 C2.15792173 20.98760942 0.49308957 21.93175978 -3.62524414 22.50170898 C-5.01174582 22.5211971 -6.39869345 22.51817556 -7.78515625 22.49609375 C-8.52326035 22.49754898 -9.26136444 22.49900421 -10.02183533 22.50050354 C-11.57587651 22.49884957 -13.12993492 22.48734451 -14.68383789 22.46655273 C-17.05881403 22.43754502 -19.43156267 22.44596284 -21.80664062 22.45898438 C-23.32032331 22.45274773 -24.83399898 22.44435736 -26.34765625 22.43359375 C-27.40872337 22.43799721 -27.40872337 22.43799721 -28.4912262 22.44248962 C-31.55106368 22.38406187 -33.72741143 22.14641387 -36.44311523 20.68774414 C-38 19 -38 19 -38.5625 15.5625 C-38 12 -38 12 -35.83276367 9.89526367 C-32.88778467 7.92492221 -30.52618549 7.01333692 -27.11328125 6.11328125 C-26.01048828 5.81486328 -24.90769531 5.51644531 -23.77148438 5.20898438 C-22.63001953 4.91314453 -21.48855469 4.61730469 -20.3125 4.3125 C-18.0373715 3.70588385 -15.7626119 3.0978819 -13.48828125 2.48828125 C-12.48321533 2.22571533 -11.47814941 1.96314941 -10.44262695 1.69262695 C-3.16163777 -0.37195739 -3.16163777 -0.37195739 0 0 Z " fill="#F96D5D" transform="translate(229,76)"/>
<path d="M0 0 C2.4375 0.375 2.4375 0.375 4.4375 2.375 C4.54377219 6.09452653 3.02537448 8.1662335 0.625 10.8125 C-8.36930587 19.3050574 -19.08972486 21.82851849 -31.109375 21.71875 C-39.08083498 20.925211 -46.58112977 17.34961233 -52.421875 11.86328125 C-53.5625 10.375 -53.5625 10.375 -54.0625 7.5625 C-53.5625 5.375 -53.5625 5.375 -52.5625 4.375 C-48.41918993 3.93737611 -46.51597957 4.75424231 -43.25 7.25 C-36.91226355 11.69900705 -30.37242068 13.31986753 -22.5625 12.375 C-15.70816925 10.83307674 -8.12302491 7.88386747 -3.875 2.0625 C-2.5625 0.375 -2.5625 0.375 0 0 Z " fill="#1A2143" transform="translate(140.5625,123.625)"/>
<path d="M0 0 C4.31290923 0.8471786 5.77021358 2.3154109 8.5 5.6875 C10.46010221 9.60770441 9.8528633 14.40361576 9.5 18.6875 C7.89701349 22.42780185 6.90262302 23.41908465 3.5 25.6875 C0.0625 26.125 0.0625 26.125 -3.5 25.6875 C-7.58862358 21.59887642 -8.69178296 18.60313469 -8.875 12.9375 C-8.83274709 9.03145353 -8.78638477 6.1412248 -6.4375 2.9375 C-3.5 0.6875 -3.5 0.6875 0 0 Z " fill="#151C3E" transform="translate(85.5,85.3125)"/>
<path d="M0 0 C3.3760055 1.90965968 6.26116772 4.26116772 9 7 C9.1875 9.4375 9.1875 9.4375 9 12 C8.34 12.66 7.68 13.32 7 14 C4.03501352 13.79551817 2.89228655 12.90645937 0.625 10.9375 C-1.87484497 8.79810936 -1.87484497 8.79810936 -5 8.4375 C-8.97523737 9.18285701 -10.41923617 10.97681951 -13 14 C-14 15 -14 15 -16.5 15.125 C-19 15 -19 15 -20 14 C-20.63826748 10.27677305 -20.03505909 9.05155749 -17.875 5.875 C-12.9985338 0.58989138 -7.06565892 -1.52256623 0 0 Z " fill="#1C2345" transform="translate(146,89)"/>
</svg>
